<?xml version="1.0" encoding="UTF-8" ?>
<!DOCTYPE svg PUBLIC "-//W3C//DTD SVG 1.1//EN" "http://www.w3.org/Graphics/SVG/1.1/DTD/svg11.dtd">
<svg width="60pt" height="60pt" viewBox="0 0 60 60" version="1.1" xmlns="http://www.w3.org/2000/svg">
<g id="#ffffffff">
<path fill="#ffffff" opacity="1.00" d=" M 0.00 0.00 L 8.58 0.00 C 4.33 0.83 0.94 4.16 0.00 8.39 L 0.00 0.00 Z" />
<path fill="#ffffff" opacity="1.00" d=" M 50.66 0.00 L 60.00 0.00 L 60.00 8.69 C 59.27 4.07 55.35 0.35 50.66 0.00 Z" />
<path fill="#ffffff" opacity="1.00" d=" M 7.41 3.49 C 8.86 2.91 10.47 3.06 12.00 2.99 C 24.69 3.06 37.38 2.92 50.06 3.04 C 53.72 2.94 57.12 6.26 56.96 9.95 C 57.07 22.61 56.95 35.27 57.02 47.93 C 57.04 50.41 56.91 53.22 54.89 54.98 C 53.15 56.90 50.43 57.05 48.02 57.02 C 35.34 56.95 22.65 57.06 9.96 56.97 C 6.27 57.12 2.96 53.75 3.06 50.08 C 2.95 36.71 2.99 23.33 3.04 9.96 C 2.94 7.15 4.88 4.56 7.41 3.49 M 17.09 22.15 C 15.36 23.26 16.63 25.09 17.81 26.01 C 21.77 23.33 24.74 19.52 28.20 16.29 C 28.12 26.20 28.19 36.12 28.14 46.03 C 28.20 47.34 28.02 48.86 29.13 49.81 C 30.42 50.26 31.91 49.36 31.80 47.93 C 31.90 37.40 31.82 26.87 31.81 16.34 C 35.27 19.54 38.29 23.22 42.08 26.06 C 43.25 25.14 44.69 23.33 42.92 22.17 C 38.66 17.97 34.73 13.35 29.95 9.72 C 25.30 13.46 21.33 17.97 17.09 22.15 Z" />
<path fill="#ffffff" opacity="1.00" d=" M 0.00 50.64 C 0.28 55.32 4.00 59.09 8.51 60.00 L 0.00 60.00 L 0.00 50.64 Z" />
<path fill="#ffffff" opacity="1.00" d=" M 51.34 60.00 C 55.91 59.21 59.68 55.38 60.00 50.69 L 60.00 60.00 L 51.34 60.00 Z" />
</g>
<g id="#ff8207ff">
<path fill="#ff8207" opacity="1.00" d=" M 8.58 0.00 L 50.66 0.00 C 55.35 0.35 59.27 4.07 60.00 8.69 L 60.00 50.69 C 59.68 55.38 55.91 59.21 51.34 60.00 L 8.51 60.00 C 4.00 59.09 0.28 55.32 0.00 50.64 L 0.00 8.39 C 0.94 4.16 4.33 0.83 8.58 0.00 M 7.41 3.49 C 4.88 4.56 2.94 7.15 3.04 9.96 C 2.99 23.33 2.95 36.71 3.06 50.08 C 2.96 53.75 6.27 57.12 9.96 56.97 C 22.65 57.06 35.34 56.95 48.02 57.02 C 50.43 57.05 53.15 56.90 54.89 54.98 C 56.91 53.22 57.04 50.41 57.02 47.93 C 56.95 35.27 57.07 22.61 56.96 9.95 C 57.12 6.26 53.72 2.94 50.06 3.04 C 37.38 2.92 24.69 3.06 12.00 2.99 C 10.47 3.06 8.86 2.91 7.41 3.49 Z" />
<path fill="#ff8207" opacity="1.00" d=" M 17.09 22.15 C 21.33 17.97 25.30 13.46 29.95 9.72 C 34.73 13.35 38.66 17.97 42.92 22.17 C 44.69 23.33 43.25 25.14 42.08 26.06 C 38.29 23.22 35.27 19.54 31.81 16.34 C 31.82 26.87 31.90 37.40 31.80 47.93 C 31.91 49.36 30.42 50.26 29.13 49.81 C 28.02 48.86 28.20 47.34 28.14 46.03 C 28.19 36.12 28.12 26.20 28.20 16.29 C 24.74 19.52 21.77 23.33 17.81 26.01 C 16.63 25.09 15.36 23.26 17.09 22.15 Z" />
</g>
</svg>
